<svg width="805" height="560" viewBox="0 0 805 560" fill="none" xmlns="http://www.w3.org/2000/svg">
<g clip-path="url(#clip0_30_164)">
<path d="M312.721 167.582C335.097 155.533 363.033 163.916 375.078 186.295C387.123 208.674 378.819 236.573 356.362 248.665L323.932 266.129C301.555 278.178 273.619 269.795 261.574 247.416C249.529 225.037 257.914 197.095 280.291 185.046L312.721 167.582ZM343.269 224.341C352.188 219.539 355.557 208.312 350.756 199.393C345.956 190.473 334.812 187.061 325.813 191.908L293.383 209.37C284.465 214.173 281.096 225.399 285.897 234.318C290.697 243.238 301.921 246.606 310.84 241.803L343.269 224.341ZM470.709 82.528C493.085 70.4784 521.022 78.8618 533.067 101.241C545.112 123.62 536.807 151.518 514.35 163.611L481.92 181.075C459.544 193.124 431.607 184.741 419.562 162.362C407.517 139.983 415.903 112.041 438.279 99.9912L470.709 82.528ZM501.257 139.286C510.176 134.484 513.545 123.258 508.744 114.338C503.944 105.419 492.801 102.007 483.801 106.853L451.372 124.316C442.453 129.119 439.084 140.345 443.885 149.264C448.685 158.184 459.909 161.552 468.828 156.749L501.257 139.286Z" fill="#9B9B9B"/>
<path d="M383.835 60.9319C388.664 61.1512 392.39 65.2604 392.158 70.11L392.746 97.3681C392.514 102.218 388.412 105.972 383.583 105.752C378.755 105.533 375.029 101.424 375.26 96.5742L374.672 69.3161C374.903 64.4664 379.006 60.7126 383.835 60.9319ZM338.109 58.3442C335.823 54.0728 330.517 52.4805 326.257 54.7877C321.998 57.0948 320.397 62.4278 322.683 66.6993L334.389 88.5743L346.094 110.449C348.38 114.721 353.686 116.313 357.946 114.006C362.205 111.699 363.805 106.366 361.52 102.095L338.109 58.3442ZM311.583 103.136C307.516 100.522 302.1 101.72 299.487 105.811C296.873 109.903 298.051 115.338 302.117 117.952L328.921 135.176C332.988 137.79 338.404 136.591 341.017 132.5C343.631 128.409 342.453 122.974 338.386 120.36L311.583 103.136Z" fill="#F9E25B"/>
<path d="M402.501 157.236L415.693 181.741L458.47 158.712C465.25 155.061 467.776 146.643 464.127 139.863C460.477 133.083 452.057 130.557 445.278 134.206L402.501 157.236Z" fill="#BEBEBE"/>
<path d="M399.812 174.44C403.438 181.22 410.534 184.493 415.66 181.751C420.786 179.009 422.002 171.291 418.376 164.511C414.75 157.731 407.655 154.458 402.529 157.2C397.402 159.942 396.186 167.66 399.812 174.44Z" fill="#D9D9D9"/>
<path fill-rule="evenodd" clip-rule="evenodd" d="M384.414 198.33C384.602 198.248 384.788 198.157 384.97 198.059C390.095 195.319 391.309 187.601 387.683 180.822C384.057 174.042 376.964 170.769 371.839 173.509C371.679 173.595 371.524 173.685 371.372 173.78L371.357 173.752L336.015 192.781C329.235 196.431 326.709 204.85 330.358 211.63C334.008 218.41 342.509 220.892 349.207 217.286L384.414 198.33Z" fill="#BEBEBE"/>
<path d="M259 210.92L259 211L282.095 211L293.357 209.667L299 206L262.893 206.926C261.167 206.97 259.665 208.118 259.168 209.772C259.057 210.144 259 210.531 259 210.92Z" fill="#121214" stroke="#121214"/>
<path d="M380.367 202C363.653 202.444 330.024 203.467 329.23 204C328.436 204.533 329.673 209.222 330.5 211C347.05 210.111 379.603 209.133 380 207C380.398 204.867 380.698 202 380.367 202Z" fill="#121214" stroke="#121214"/>
</g>
<rect x="80" y="218.774" width="625.074" height="230.65" transform="rotate(-2.55243 80 218.774)" fill="#F9E25B"/>
<path d="M173.495 239.21L176.245 300.967L163.188 301.549L160.438 239.792L173.495 239.21ZM235.893 236.431L238.643 298.188L227.365 298.69L198.766 261.017L198.314 261.038L200.045 299.907L186.988 300.489L184.237 238.732L195.696 238.221L224.083 275.874L224.626 275.849L222.896 237.01L235.893 236.431ZM271.323 296.733L249.431 297.708L246.68 235.951L268.754 234.968C274.966 234.691 280.368 235.689 284.961 237.962C289.553 240.215 293.158 243.59 295.776 248.086C298.413 252.581 299.875 258.035 300.16 264.448C300.447 270.881 299.477 276.464 297.25 281.196C295.044 285.927 291.734 289.63 287.321 292.304C282.928 294.977 277.595 296.453 271.323 296.733ZM261.99 285.939L270.282 285.569C274.142 285.398 277.358 284.569 279.931 283.085C282.523 281.58 284.417 279.35 285.615 276.396C286.832 273.421 287.338 269.632 287.133 265.028C286.93 260.465 286.091 256.766 284.615 253.931C283.159 251.095 281.084 249.052 278.39 247.803C275.695 246.553 272.418 246.014 268.558 246.186L260.236 246.557L261.99 285.939ZM321.517 232.618L324.267 294.375L311.21 294.956L308.46 233.199L321.517 232.618ZM374.099 250.278C373.611 248.829 372.961 247.559 372.146 246.467C371.332 245.356 370.354 244.432 369.213 243.697C368.092 242.942 366.818 242.384 365.392 242.025C363.986 241.664 362.439 241.522 360.75 241.597C357.594 241.737 354.855 242.645 352.532 244.32C350.23 245.993 348.482 248.357 347.289 251.412C346.094 254.446 345.593 258.114 345.785 262.416C345.976 266.718 346.792 270.348 348.233 273.305C349.674 276.263 351.626 278.482 354.089 279.964C356.552 281.425 359.411 282.084 362.668 281.938C365.623 281.807 368.122 281.172 370.167 280.033C372.23 278.874 373.772 277.305 374.791 275.325C375.831 273.345 376.292 271.039 376.175 268.405L378.846 268.679L362.925 269.388L362.487 259.558L388.329 258.407L388.676 266.187C388.918 271.614 387.979 276.329 385.861 280.331C383.742 284.313 380.72 287.449 376.793 289.739C372.865 292.009 368.308 293.259 363.122 293.49C357.332 293.748 352.189 292.698 347.693 290.34C343.196 287.962 339.616 284.466 336.953 279.851C334.309 275.215 332.842 269.64 332.552 263.127C332.329 258.121 332.854 253.626 334.127 249.641C335.419 245.636 337.321 242.207 339.833 239.356C342.344 236.505 345.317 234.287 348.752 232.704C352.186 231.121 355.944 230.239 360.025 230.057C363.523 229.901 366.802 230.269 369.863 231.16C372.924 232.031 375.661 233.339 378.075 235.084C380.51 236.829 382.528 238.945 384.129 241.432C385.729 243.899 386.809 246.65 387.367 249.687L374.099 250.278ZM448.514 226.962L451.264 288.719L439.986 289.221L411.387 251.548L410.935 251.568L412.666 290.438L399.609 291.019L396.859 229.262L408.318 228.752L436.704 266.404L437.247 266.38L435.517 227.541L448.514 226.962ZM517.428 254.833C517.728 261.567 516.707 267.353 514.364 272.191C512.041 277.028 508.744 280.791 504.473 283.479C500.221 286.146 495.37 287.601 489.922 287.843C484.434 288.088 479.454 287.061 474.98 284.762C470.507 282.464 466.898 279.009 464.155 274.397C461.412 269.786 459.89 264.123 459.591 257.408C459.291 250.674 460.303 244.888 462.625 240.051C464.948 235.214 468.235 231.462 472.488 228.795C476.739 226.108 481.609 224.642 487.097 224.398C492.545 224.155 497.506 225.183 501.979 227.482C506.472 229.759 510.09 233.204 512.833 237.815C515.597 242.426 517.128 248.098 517.428 254.833ZM504.19 255.422C503.996 251.06 503.179 247.41 501.739 244.473C500.319 241.535 498.398 239.344 495.977 237.901C493.556 236.458 490.767 235.806 487.611 235.947C484.455 236.088 481.735 236.984 479.452 238.637C477.169 240.29 475.441 242.643 474.268 245.696C473.114 248.749 472.635 252.456 472.829 256.819C473.024 261.181 473.831 264.831 475.251 267.77C476.691 270.707 478.621 272.897 481.042 274.34C483.463 275.783 486.252 276.435 489.408 276.294C492.564 276.154 495.284 275.257 497.567 273.604C499.85 271.951 501.568 269.599 502.722 266.546C503.895 263.493 504.384 259.785 504.19 255.422ZM577.38 221.223L580.131 282.98L568.853 283.482L540.254 245.809L539.801 245.829L541.532 284.699L528.475 285.28L525.725 223.523L537.184 223.013L565.57 260.665L566.113 260.641L564.384 221.802L577.38 221.223ZM622.461 237.012C622.111 234.59 620.992 232.746 619.103 231.481C617.213 230.215 614.701 229.653 611.564 229.792C609.433 229.887 607.648 230.269 606.207 230.937C604.765 231.586 603.676 232.45 602.938 233.53C602.221 234.61 601.892 235.813 601.951 237.139C601.96 238.247 602.234 239.202 602.774 240.003C603.333 240.804 604.078 241.486 605.01 242.049C605.94 242.592 607.009 243.058 608.214 243.447C609.419 243.817 610.702 244.122 612.062 244.364L617.67 245.443C620.391 245.926 622.899 246.62 625.195 247.525C627.492 248.43 629.497 249.58 631.211 250.974C632.924 252.368 634.278 254.04 635.271 255.99C636.285 257.939 636.859 260.2 636.993 262.772C637.142 266.552 636.323 269.872 634.536 272.731C632.769 275.57 630.131 277.832 626.62 279.52C623.129 281.186 618.871 282.131 613.845 282.355C608.859 282.577 604.483 282.006 600.716 280.643C596.969 279.279 593.994 277.145 591.79 274.242C589.605 271.318 588.363 267.637 588.065 263.199L600.7 262.636C600.933 264.7 601.603 266.403 602.71 267.743C603.836 269.063 605.299 270.035 607.1 270.66C608.919 271.264 610.955 271.515 613.207 271.415C615.418 271.317 617.323 270.91 618.923 270.194C620.543 269.477 621.78 268.526 622.633 267.339C623.487 266.153 623.881 264.816 623.814 263.329C623.753 261.942 623.289 260.794 622.422 259.886C621.576 258.977 620.354 258.225 618.757 257.632C617.179 257.037 615.252 256.519 612.977 256.076L606.177 254.687C600.914 253.653 596.715 251.856 593.579 249.296C590.444 246.736 588.784 243.175 588.601 238.61C588.415 234.872 589.264 231.561 591.15 228.677C593.056 225.792 595.743 223.487 599.212 221.761C602.68 220.036 606.666 219.073 611.169 218.872C615.752 218.668 619.788 219.274 623.275 220.69C626.783 222.105 629.553 224.167 631.588 226.876C633.622 229.585 634.751 232.778 634.975 236.454L622.461 237.012Z" fill="#121214"/>
<path d="M258.991 315.619L263.845 424.601L239.154 425.701L197.225 370.196L196.586 370.225L199.136 427.483L169.549 428.801L164.696 319.818L189.813 318.699L231.093 374.02L231.945 373.982L229.404 316.936L258.991 315.619ZM401.97 363.851C402.51 375.983 400.607 386.323 396.26 394.87C391.911 403.382 385.824 409.963 377.997 414.612C370.169 419.226 361.324 421.753 351.462 422.192C341.528 422.635 332.457 420.888 324.248 416.953C316.074 412.98 309.442 406.948 304.354 398.857C299.3 390.728 296.504 380.633 295.967 368.571C295.427 356.439 297.313 346.117 301.626 337.607C305.973 329.06 312.043 322.48 319.836 317.868C327.662 313.218 336.542 310.672 346.475 310.23C356.338 309.79 365.373 311.538 373.582 315.474C381.789 319.374 388.438 325.388 393.527 333.514C398.615 341.606 401.43 351.718 401.97 363.851ZM371.531 365.206C371.241 358.678 370.127 353.218 368.189 348.826C366.286 344.396 363.597 341.103 360.125 338.948C356.685 336.755 352.518 335.767 347.622 335.985C342.727 336.203 338.646 337.558 335.38 340.05C332.148 342.504 329.763 346.023 328.225 350.606C326.721 355.151 326.115 360.688 326.406 367.216C326.696 373.743 327.793 379.222 329.697 383.652C331.634 388.044 334.323 391.337 337.762 393.53C341.235 395.686 345.419 396.655 350.315 396.437C355.21 396.219 359.274 394.882 362.506 392.428C365.772 389.936 368.157 386.418 369.661 381.872C371.199 377.289 371.822 371.734 371.531 365.206ZM498.707 304.943L528.295 303.625L531.404 373.442C531.774 381.744 530.107 389.016 526.404 395.259C522.735 401.466 517.443 406.376 510.531 409.99C503.616 413.568 495.494 415.565 486.164 415.98C476.762 416.399 468.459 415.133 461.254 412.184C454.047 409.199 448.341 404.779 444.134 398.923C439.962 393.031 437.691 385.934 437.321 377.632L434.212 307.815L463.799 306.497L466.794 373.76C466.945 377.131 467.824 380.113 469.432 382.707C471.039 385.266 473.189 387.232 475.88 388.605C478.607 389.977 481.656 390.587 485.026 390.437C488.432 390.286 491.414 389.406 493.973 387.799C496.532 386.192 498.498 384.043 499.871 381.352C501.242 378.625 501.853 375.576 501.703 372.206L498.707 304.943ZM623.601 333.505C623.159 329.97 621.706 327.262 619.24 325.382C616.81 323.499 613.201 322.665 608.411 322.878C605.361 323.014 602.876 323.498 600.958 324.33C599.074 325.124 597.698 326.163 596.831 327.446C595.964 328.729 595.548 330.169 595.584 331.767C595.572 333.083 595.855 334.261 596.435 335.302C597.048 336.305 597.977 337.206 599.221 338.004C600.463 338.766 602.04 339.442 603.95 340.032C605.86 340.623 608.122 341.126 610.736 341.543L619.761 343.061C625.849 344.069 631.086 345.524 635.472 347.426C639.857 349.328 643.479 351.637 646.337 354.354C649.194 357.035 651.339 360.103 652.772 363.558C654.241 367.012 655.086 370.813 655.306 374.962C655.59 382.13 654.069 388.276 650.742 393.401C647.416 398.526 642.511 402.53 636.028 405.414C629.58 408.296 621.744 409.942 612.52 410.353C603.048 410.775 594.72 409.741 587.535 407.253C580.386 404.763 574.731 400.696 570.569 395.052C566.442 389.371 564.157 381.972 563.716 372.856L591.813 371.605C592.139 374.932 593.097 377.697 594.688 379.902C596.28 382.106 598.449 383.733 601.198 384.784C603.981 385.833 607.254 386.274 611.014 386.106C614.171 385.965 616.797 385.457 618.891 384.582C620.985 383.707 622.551 382.553 623.589 381.12C624.627 379.688 625.124 378.084 625.081 376.309C624.971 374.643 624.356 373.213 623.237 372.018C622.151 370.787 620.398 369.728 617.977 368.84C615.554 367.917 612.301 367.102 608.217 366.396L597.257 364.538C587.514 362.874 579.749 359.719 573.961 355.071C568.207 350.386 565.158 343.786 564.815 335.27C564.471 328.354 566.046 322.223 569.541 316.878C573.069 311.495 578.085 307.202 584.59 303.997C591.13 300.791 598.71 298.996 607.331 298.612C616.129 298.22 623.804 299.354 630.356 302.012C636.909 304.671 642.043 308.601 645.758 313.803C649.507 318.968 651.558 325.115 651.911 332.245L623.601 333.505Z" fill="#121214"/>
<rect x="56" y="448.919" width="685.735" height="111.014" transform="rotate(-4.92897 56 448.919)" fill="#F52639"/>
<path d="M101.612 524.177L97.2367 473.456L119.229 471.559C123.092 471.226 126.382 471.466 129.097 472.28C131.828 473.092 133.944 474.39 135.445 476.173C136.963 477.955 137.833 480.134 138.055 482.71C138.216 484.575 137.95 486.311 137.257 487.918C136.58 489.523 135.552 490.91 134.172 492.076C132.791 493.227 131.135 494.085 129.205 494.651L129.248 495.146C131.434 495.041 133.463 495.423 135.335 496.293C137.205 497.146 138.745 498.419 139.955 500.111C141.164 501.786 141.872 503.821 142.079 506.215C142.318 508.989 141.804 511.52 140.538 513.808C139.288 516.095 137.388 517.972 134.836 519.44C132.285 520.907 129.168 521.8 125.486 522.117L101.612 524.177ZM114.433 511.993L120.872 511.437C123.184 511.238 124.88 510.659 125.962 509.701C127.042 508.726 127.509 507.388 127.362 505.688C127.26 504.499 126.901 503.515 126.285 502.737C125.669 501.958 124.838 501.398 123.794 501.056C122.767 500.712 121.551 500.6 120.148 500.721L113.51 501.294L114.433 511.993ZM112.775 492.774L118.422 492.287C119.627 492.183 120.676 491.902 121.568 491.442C122.46 490.983 123.131 490.376 123.581 489.622C124.047 488.85 124.235 487.944 124.145 486.903C124.01 485.335 123.345 484.186 122.152 483.458C120.956 482.712 119.5 482.414 117.783 482.562L111.938 483.066L112.775 492.774ZM148.197 520.158L143.822 469.438L157.591 468.25L161.009 507.875L181.516 506.107L182.473 517.202L148.197 520.158ZM233.012 487.293C233.499 492.94 232.812 497.798 230.951 501.867C229.088 505.92 226.377 509.107 222.818 511.426C219.258 513.729 215.182 515.079 210.592 515.475C205.969 515.874 201.706 515.235 197.802 513.559C193.914 511.865 190.705 509.181 188.176 505.507C185.662 501.815 184.162 497.162 183.678 491.549C183.191 485.902 183.871 481.053 185.717 477.002C187.578 472.932 190.281 469.747 193.825 467.445C197.384 465.125 201.475 463.766 206.098 463.367C210.688 462.971 214.935 463.611 218.838 465.287C222.741 466.947 225.957 469.622 228.488 473.312C231.017 476.986 232.525 481.647 233.012 487.293ZM218.846 488.515C218.584 485.477 217.959 482.953 216.97 480.942C215.997 478.914 214.679 477.431 213.018 476.493C211.372 475.537 209.41 475.157 207.132 475.354C204.853 475.55 202.977 476.261 201.502 477.486C200.043 478.693 198.999 480.38 198.371 482.547C197.758 484.696 197.582 487.289 197.844 490.327C198.106 493.365 198.724 495.898 199.697 497.926C200.686 499.937 202.003 501.42 203.649 502.376C205.31 503.314 207.28 503.685 209.558 503.488C211.837 503.292 213.706 502.59 215.165 501.383C216.64 500.158 217.684 498.471 218.297 496.322C218.925 494.156 219.108 491.553 218.846 488.515ZM259.562 491.59L270.261 490.667L274.543 495.188L281.722 502.054L291.13 511.622L278.945 512.673L272.296 506.16L267.73 500.666L259.562 491.59ZM288.519 482.505C289.006 488.152 288.319 493.01 286.458 497.08C284.595 501.132 281.884 504.319 278.325 506.638C274.764 508.942 270.689 510.291 266.099 510.687C261.476 511.086 257.213 510.447 253.309 508.771C249.42 507.077 246.212 504.393 243.682 500.719C241.168 497.027 239.669 492.374 239.185 486.761C238.698 481.114 239.377 476.265 241.224 472.214C243.085 468.144 245.787 464.959 249.331 462.657C252.891 460.337 256.982 458.978 261.605 458.579C266.194 458.183 270.441 458.823 274.345 460.499C278.247 462.159 281.464 464.834 283.994 468.524C286.524 472.198 288.032 476.859 288.519 482.505ZM274.353 483.727C274.091 480.689 273.465 478.165 272.477 476.155C271.503 474.126 270.186 472.643 268.525 471.705C266.879 470.749 264.917 470.37 262.638 470.566C260.36 470.763 258.484 471.473 257.009 472.698C255.55 473.905 254.506 475.592 253.878 477.759C253.265 479.908 253.089 482.501 253.351 485.539C253.613 488.577 254.231 491.11 255.204 493.139C256.193 495.149 257.51 496.632 259.156 497.588C260.817 498.526 262.787 498.897 265.065 498.7C267.344 498.504 269.213 497.802 270.672 496.595C272.147 495.37 273.19 493.683 273.803 491.534C274.432 489.368 274.615 486.765 274.353 483.727ZM322.787 454L336.557 452.813L339.359 485.306C339.693 489.169 339.057 492.592 337.451 495.575C335.86 498.54 333.488 500.932 330.335 502.751C327.181 504.553 323.432 505.642 319.09 506.016C314.715 506.394 310.819 505.965 307.402 504.729C303.984 503.477 301.237 501.527 299.163 498.878C297.103 496.211 295.906 492.946 295.573 489.083L292.77 456.59L306.54 455.402L309.241 486.706C309.376 488.275 309.844 489.648 310.644 490.827C311.443 491.989 312.483 492.864 313.765 493.452C315.063 494.038 316.496 494.264 318.064 494.129C319.65 493.992 321.023 493.524 322.185 492.725C323.347 491.926 324.222 490.886 324.81 489.605C325.397 488.307 325.622 486.873 325.487 485.305L322.787 454ZM394.424 473.37C394.911 479.017 394.224 483.875 392.363 487.944C390.5 491.997 387.79 495.184 384.23 497.503C380.67 499.806 376.595 501.156 372.005 501.552C367.382 501.951 363.118 501.312 359.215 499.636C355.326 497.942 352.117 495.258 349.588 491.584C347.074 487.892 345.575 483.239 345.091 477.626C344.603 471.979 345.283 467.13 347.129 463.078C348.99 459.009 351.693 455.823 355.237 453.522C358.796 451.202 362.887 449.843 367.51 449.444C372.1 449.048 376.347 449.688 380.251 451.364C384.153 453.024 387.369 455.699 389.9 459.389C392.429 463.063 393.937 467.724 394.424 473.37ZM380.258 474.592C379.996 471.554 379.371 469.03 378.382 467.019C377.409 464.991 376.092 463.508 374.431 462.57C372.785 461.614 370.823 461.234 368.544 461.431C366.266 461.627 364.389 462.338 362.915 463.563C361.455 464.77 360.411 466.457 359.783 468.624C359.17 470.772 358.995 473.366 359.257 476.404C359.519 479.442 360.136 481.975 361.11 484.003C362.098 486.014 363.416 487.497 365.062 488.453C366.723 489.391 368.692 489.762 370.971 489.565C373.249 489.369 375.118 488.667 376.578 487.46C378.052 486.235 379.096 484.548 379.709 482.399C380.337 480.232 380.52 477.63 380.258 474.592ZM442.493 443.675L446.868 494.396L435.377 495.387L414.751 470.319L414.454 470.345L416.753 496.993L402.983 498.181L398.608 447.46L410.297 446.452L430.617 471.446L431.013 471.412L428.723 444.863L442.493 443.675ZM477.716 456.605C477.441 454.965 476.711 453.731 475.525 452.902C474.355 452.071 472.656 451.752 470.427 451.944C469.007 452.067 467.858 452.34 466.98 452.765C466.117 453.172 465.496 453.683 465.116 454.298C464.737 454.913 464.571 455.593 464.619 456.337C464.638 456.951 464.793 457.495 465.084 457.969C465.389 458.425 465.84 458.827 466.435 459.175C467.029 459.506 467.777 459.791 468.679 460.029C469.582 460.267 470.646 460.458 471.873 460.602L476.11 461.135C478.968 461.487 481.438 462.064 483.52 462.866C485.602 463.667 487.335 464.674 488.721 465.885C490.105 467.08 491.164 468.469 491.9 470.052C492.651 471.634 493.119 473.39 493.302 475.32C493.573 478.657 492.983 481.552 491.531 484.006C490.08 486.46 487.87 488.422 484.903 489.892C481.953 491.361 478.331 492.281 474.038 492.651C469.63 493.031 465.727 492.711 462.329 491.69C458.947 490.667 456.231 488.881 454.182 486.33C452.147 483.761 450.938 480.355 450.556 476.113L463.632 474.985C463.849 476.53 464.349 477.801 465.134 478.798C465.918 479.795 466.962 480.512 468.263 480.948C469.582 481.383 471.116 481.526 472.866 481.375C474.335 481.248 475.55 480.96 476.509 480.511C477.468 480.063 478.176 479.494 478.633 478.806C479.089 478.118 479.29 477.361 479.235 476.534C479.152 475.759 478.837 475.104 478.292 474.569C477.762 474.016 476.924 473.556 475.778 473.189C474.63 472.806 473.098 472.489 471.18 472.239L466.034 471.585C461.459 470.998 457.777 469.677 454.988 467.622C452.214 465.549 450.665 462.531 450.34 458.567C450.045 455.349 450.661 452.46 452.187 449.9C453.728 447.322 455.983 445.223 458.954 443.602C461.941 441.981 465.441 440.997 469.453 440.651C473.548 440.298 477.148 440.677 480.255 441.79C483.362 442.903 485.832 444.636 487.665 446.989C489.513 449.325 490.588 452.151 490.891 455.468L477.716 456.605ZM508.919 449.123L507.962 438.028L552.046 434.225L553.003 445.32L537.747 446.636L541.165 486.262L527.593 487.432L524.175 447.807L508.919 449.123ZM606.167 455.106C606.654 460.752 605.967 465.61 604.106 469.68C602.243 473.733 599.533 476.919 595.974 479.239C592.413 481.542 588.338 482.891 583.748 483.287C579.125 483.686 574.861 483.048 570.958 481.372C567.069 479.678 563.86 476.994 561.331 473.32C558.817 469.628 557.318 464.975 556.834 459.361C556.346 453.715 557.026 448.866 558.872 444.814C560.733 440.745 563.436 437.559 566.98 435.257C570.539 432.938 574.63 431.578 579.253 431.18C583.843 430.784 588.09 431.424 591.994 433.1C595.896 434.759 599.112 437.434 601.643 441.125C604.172 444.799 605.68 449.459 606.167 455.106ZM592.001 456.328C591.739 453.29 591.114 450.766 590.125 448.755C589.152 446.726 587.835 445.243 586.174 444.305C584.528 443.35 582.566 442.97 580.287 443.166C578.009 443.363 576.132 444.074 574.658 445.299C573.198 446.506 572.154 448.193 571.526 450.359C570.913 452.508 570.738 455.101 571 458.139C571.262 461.177 571.879 463.71 572.853 465.739C573.841 467.75 575.159 469.233 576.805 470.189C578.466 471.126 580.435 471.497 582.714 471.301C584.992 471.104 586.861 470.402 588.321 469.195C589.795 467.97 590.839 466.283 591.452 464.135C592.08 461.968 592.263 459.366 592.001 456.328ZM640.367 426.607L654.137 425.419L656.94 457.912C657.273 461.775 656.637 465.199 655.031 468.181C653.441 471.146 651.069 473.538 647.916 475.357C644.761 477.16 641.013 478.248 636.67 478.623C632.295 479 628.399 478.571 624.982 477.335C621.564 476.083 618.818 474.133 616.743 471.484C614.683 468.817 613.487 465.552 613.154 461.689L610.351 429.196L624.121 428.008L626.821 459.312C626.956 460.881 627.424 462.254 628.224 463.433C629.023 464.595 630.063 465.47 631.345 466.058C632.643 466.644 634.076 466.87 635.645 466.735C637.23 466.598 638.603 466.13 639.765 465.332C640.927 464.533 641.802 463.492 642.391 462.211C642.977 460.913 643.203 459.479 643.068 457.911L640.367 426.607ZM660.252 436.069L659.295 424.974L703.378 421.172L704.335 432.267L689.079 433.583L692.497 473.208L678.926 474.379L675.508 434.753L660.252 436.069Z" fill="white"/>
<defs>
<clipPath id="clip0_30_164">
<rect width="280" height="280" fill="white" transform="translate(303.479) rotate(16.7039)"/>
</clipPath>
</defs>
</svg>
